<?xml version="1.0" standalone="no"?>
<!DOCTYPE svg PUBLIC "-//W3C//DTD SVG 20010904//EN"
 "http://www.w3.org/TR/2001/REC-SVG-20010904/DTD/svg10.dtd">
<svg version="1.0" xmlns="http://www.w3.org/2000/svg"
 width="639.000000pt" height="350.000000pt" viewBox="0 0 639.000000 350.000000"
 preserveAspectRatio="xMidYMid meet">
<metadata>
Created by potrace 1.15, written by Peter Selinger 2001-2017
</metadata>
<g transform="translate(0.000000,350.000000) scale(0.100000,-0.100000)"
fill="#000000" stroke="none">
<path d="M0 1750 l0 -1750 1020 0 c1013 0 1020 0 1020 20 0 13 7 20 20 20 13
0 20 -6 19 -17 0 -11 -3 -13 -6 -5 -7 17 -23 15 -23 -3 0 -13 107 -15 900 -15
l900 0 0 48 c0 26 3 58 6 72 4 16 3 21 -3 13 -6 -9 -9 -1 -10 23 -1 35 -1 35
14 14 12 -17 14 -38 9 -99 -6 -69 -5 -74 9 -57 13 18 20 15 16 -6 0 -5 125 -8
279 -8 l280 0 6 25 c7 27 24 34 24 10 0 -8 -4 -15 -10 -15 -5 0 -10 -4 -10
-10 0 -7 328 -10 965 -10 l965 0 0 1750 0 1750 -3195 0 -3195 0 0 -1750z
m1195 1256 l36 -7 -47 -42 c-58 -52 -80 -60 -116 -48 -23 8 -28 7 -28 -5 0
-28 -50 -63 -98 -69 -26 -3 -64 -8 -85 -11 l-39 -5 39 47 c80 97 110 127 129
129 10 1 29 7 41 13 12 7 40 12 62 12 23 0 41 5 41 11 0 6 7 4 15 -4 7 -8 30
-18 50 -21z m3159 -155 c4 -5 0 -12 -6 -15 -7 -3 1 -4 17 -1 17 3 25 2 19 -2
-16 -11 -14 -45 3 -39 7 3 13 2 13 -3 0 -5 8 -11 18 -14 9 -2 26 -8 36 -13 13
-5 17 -4 12 4 -4 7 8 6 35 -3 22 -8 45 -12 50 -9 14 8 70 -36 63 -49 -4 -7 -4
-9 1 -5 4 4 14 1 22 -7 18 -18 37 -20 28 -2 -4 6 1 3 9 -7 9 -11 16 -16 16
-10 0 5 4 2 10 -6 7 -12 12 -11 32 5 13 11 20 16 16 11 -4 -5 -3 -15 4 -23 9
-11 7 -12 -8 -8 -10 3 -1 -3 21 -14 49 -24 66 -26 59 -6 -4 8 -1 15 5 15 6 0
11 -8 11 -18 0 -16 31 -28 173 -72 94 -29 178 -55 185 -57 8 -4 10 0 6 10 -6
16 11 18 34 4 7 -5 12 -3 12 6 0 8 7 17 15 21 9 3 12 12 9 23 -5 14 -4 15 4 4
6 -8 15 -10 22 -6 9 5 11 4 6 -3 -4 -7 -3 -12 2 -12 5 0 19 -9 32 -20 13 -11
20 -20 17 -20 -3 0 -13 -3 -23 -7 -13 -5 -15 -3 -9 7 5 9 4 11 -3 6 -21 -13
-13 -28 11 -24 15 3 24 0 24 -9 0 -8 -7 -11 -19 -7 -10 3 -18 1 -18 -5 0 -6 7
-11 15 -11 28 0 75 -30 75 -48 0 -9 -43 -143 -96 -297 -53 -154 -115 -336
-138 -405 -24 -68 -48 -126 -55 -128 -10 -3 -141 44 -441 160 -58 23 -112 47
-121 55 -9 7 -18 11 -20 8 -3 -2 -111 30 -240 71 -128 42 -258 83 -287 92 -30
8 -56 21 -59 29 -3 7 21 90 53 183 43 126 62 170 74 170 20 0 47 89 30 100 -7
4 12 72 55 194 36 104 65 190 65 193 0 2 -4 1 -10 -2 -5 -3 -10 -2 -10 4 0 11
69 3 85 -10 21 -16 65 -29 65 -19 0 6 -9 10 -20 10 -11 0 -18 6 -16 13 1 6 1
9 -1 5 -3 -5 -9 -8 -15 -8 -6 0 -6 6 2 15 14 17 36 20 44 6z m-624 -82 c10 0
8 -3 -5 -9 -11 -5 -15 -9 -8 -9 19 -1 43 11 38 19 -3 5 4 6 15 3 10 -3 22 -13
25 -23 3 -11 16 -21 28 -23 21 -4 21 -4 1 -6 -11 0 -30 8 -41 18 -12 11 -23
17 -27 14 -8 -9 40 -43 61 -43 16 0 19 -7 19 -44 -1 -24 -5 -42 -10 -39 -4 3
-5 -3 -2 -13 3 -11 2 -32 -3 -49 l-9 -30 -2 35 c-2 47 -7 70 -16 78 -4 4 -4
-1 -1 -10 4 -10 2 -18 -4 -18 -7 0 -9 10 -4 28 9 38 23 50 36 32 9 -13 10 -13
7 0 -3 8 -20 19 -39 24 -21 6 -424 11 -1054 13 -1093 3 -1062 4 -1076 -47 -7
-25 -7 -25 -8 3 -1 34 16 70 30 62 5 -4 8 -1 7 7 -2 9 8 13 32 13 19 0 34 5
33 10 -1 7 331 9 980 8 540 -2 989 -3 997 -4z m-2796 -104 c20 -8 36 -20 36
-25 0 -6 8 -5 19 2 15 9 27 7 62 -11 24 -13 46 -26 49 -30 3 -4 16 -15 30 -24
15 -11 19 -17 10 -17 -11 0 -11 -3 -3 -8 6 -4 -21 -6 -60 -5 -47 1 -65 -1 -52
-7 12 -5 -1 -6 -35 -3 -68 7 -84 18 -27 19 60 1 167 8 167 11 0 8 -63 34 -73
30 -7 -3 -1 -9 13 -15 23 -10 22 -11 -15 -11 -27 -1 -35 2 -26 8 9 6 -3 11
-39 16 -29 4 -77 18 -106 31 -30 13 -54 20 -54 15 0 -5 8 -12 18 -14 9 -2 3
-4 -14 -3 -30 1 -31 2 -15 23 14 19 31 27 67 32 6 0 28 -6 48 -14z m2756 -37
c0 -7 -29 -159 -64 -338 l-63 -325 -833 0 -834 0 -72 330 c-41 182 -73 333
-74 338 0 4 437 7 970 7 769 0 970 -3 970 -12z m-2577 -122 c-4 -51 9 -216 17
-211 8 5 9 -5 10 -87 0 -27 4 -48 10 -48 5 0 9 -11 8 -25 -1 -14 -6 -25 -10
-25 -4 0 -8 -7 -8 -15 0 -8 -7 -15 -16 -15 -9 0 -12 5 -8 12 5 8 2 9 -10 5
-10 -4 -27 -8 -39 -8 -33 -2 28 -16 78 -19 22 -1 34 -4 27 -7 -7 -3 -55 0
-105 6 -55 6 -107 7 -129 2 -21 -5 -38 -6 -38 -2 0 4 -24 8 -52 9 -38 2 -49 0
-38 -7 12 -8 10 -10 -7 -8 -12 0 -19 5 -17 9 3 4 -5 7 -17 5 -21 -2 -32 10
-43 46 -3 9 -15 17 -26 17 -11 0 -20 5 -20 11 0 6 -9 23 -21 37 -15 20 -17 28
-7 31 7 2 17 9 21 15 4 6 5 0 2 -14 -5 -19 0 -32 19 -50 25 -23 26 -23 26 -3
0 12 -7 23 -15 27 -8 3 -15 13 -15 21 0 9 5 13 11 9 7 -4 9 0 6 12 -3 11 -8
36 -12 58 -8 46 -41 113 -47 94 -3 -7 -5 2 -5 20 0 40 5 41 19 1 15 -44 21
-28 7 20 -11 37 -10 43 6 55 20 14 13 36 -13 36 -13 0 -13 -2 4 -15 19 -14 18
-14 -3 -15 -16 0 -23 6 -23 20 0 14 7 20 23 20 12 0 30 -9 40 -20 9 -11 25
-20 34 -19 16 0 15 2 -2 9 -12 5 9 6 51 3 42 -3 85 -1 106 6 20 6 60 12 90 12
30 1 60 4 66 8 6 3 23 7 39 7 27 1 29 -1 26 -30z m-868 -158 c-2 -18 -1 -27 2
-20 2 6 9 9 14 6 6 -3 20 1 33 10 28 18 36 12 36 -26 0 -35 25 -98 39 -98 26
0 7 -30 -29 -46 -22 -10 -40 -21 -40 -25 0 -4 -12 -7 -27 -6 -23 2 -28 7 -30
35 -2 18 2 32 8 32 8 0 8 4 0 13 -6 8 -8 17 -4 20 3 4 -1 7 -9 7 -9 0 -19 12
-23 28 -4 15 -10 21 -12 14 -3 -7 0 -26 6 -42 11 -32 10 -33 -12 -24 -11 4
-14 16 -11 40 4 35 -11 48 -19 17 -3 -10 -5 8 -6 40 l-1 57 44 0 c44 0 45 0
41 -32z m1303 1 c-13 -9 -8 -11 27 -13 11 -1 20 -8 20 -16 0 -8 8 -21 18 -28
9 -7 17 -17 17 -23 0 -5 -10 1 -22 13 -13 13 -21 29 -20 37 2 9 -2 12 -13 7
-9 -3 -26 1 -39 9 -12 8 -25 12 -29 9 -4 -4 11 -16 33 -26 54 -27 80 -67 87
-133 4 -39 10 -55 21 -55 11 0 13 7 7 33 -10 43 -6 119 6 132 7 7 8 -2 4 -26
-4 -23 -3 -39 4 -43 6 -4 11 -1 11 6 0 8 5 19 12 26 14 14 38 -2 38 -26 0 -13
-3 -13 -19 2 -18 17 -19 16 -26 -15 -7 -31 -8 -32 -21 -14 -18 24 -18 13 1
-31 8 -20 13 -39 10 -43 -2 -4 2 -8 10 -8 8 0 15 5 15 11 0 6 5 3 11 -7 6 -9
15 -14 21 -11 13 8 2 -45 -12 -60 -4 -4 -30 -3 -57 2 -27 6 -49 7 -51 2 -2 -5
-12 -21 -24 -35 -59 -76 -196 -87 -265 -23 -18 17 -23 18 -23 6 0 -17 44 -61
64 -64 8 -1 22 -7 33 -13 16 -9 16 -10 1 -11 -9 0 -20 5 -23 10 -14 22 -35
-12 -33 -54 1 -40 1 -40 5 -6 5 40 17 57 28 39 5 -8 4 -10 -3 -5 -9 5 -12 -6
-12 -38 0 -25 -4 -46 -10 -46 -13 0 -13 -46 1 -72 8 -16 8 -19 -1 -13 -9 6
-10 1 -4 -16 4 -13 8 -76 9 -139 2 -292 4 -320 21 -320 13 0 14 -3 5 -14 -8
-9 -8 -21 -2 -37 l10 -24 2 25 c1 14 1 49 0 78 -2 42 0 52 13 52 12 0 16 -10
16 -34 0 -19 3 -43 6 -53 4 -14 4 -15 -4 -4 -7 10 -12 6 -17 -20 -4 -19 -12
-40 -18 -47 -7 -8 -7 -16 -1 -20 5 -4 10 -27 11 -51 2 -24 8 -50 14 -57 6 -8
9 -19 6 -26 -2 -7 4 -58 15 -113 11 -55 21 -111 23 -125 2 -14 9 -53 15 -88 6
-35 10 -68 9 -75 -4 -31 3 -46 21 -52 11 -3 20 -11 20 -16 0 -6 -4 -7 -10 -4
-5 3 -10 1 -10 -5 0 -6 -5 -8 -10 -5 -6 4 -7 11 -4 17 4 6 2 8 -3 5 -6 -4 -14
4 -17 18 -4 14 -11 25 -16 25 -13 0 -13 -7 0 -30 8 -15 6 -24 -10 -40 -11 -11
-26 -20 -34 -20 -9 0 -12 -7 -9 -20 5 -21 18 -19 18 3 0 5 6 12 13 15 15 5 5
-26 -15 -46 -11 -11 -15 -10 -22 10 -6 13 -10 17 -10 10 -1 -7 -6 -10 -11 -7
-6 4 -8 9 -6 13 2 4 -33 8 -78 8 -57 1 -71 -1 -46 -6 28 -6 30 -8 10 -9 -14
-1 -43 -4 -65 -6 -31 -4 -36 -3 -20 5 14 7 -7 9 -78 6 -54 -2 -101 -7 -105
-11 -4 -4 25 -5 65 -1 39 4 73 3 76 -1 3 -4 -7 -9 -21 -9 -15 -1 -63 -4 -107
-7 -73 -6 -78 -5 -55 8 l25 14 -32 1 c-18 0 -33 -5 -33 -10 0 -6 -11 -8 -25
-4 -14 3 -33 3 -42 -1 -10 -4 -49 -9 -87 -11 -37 -2 -73 -7 -79 -11 -7 -4 -30
-8 -51 -8 -22 -1 -42 -7 -44 -13 -2 -7 -8 -12 -13 -12 -6 0 -7 5 -4 10 3 6 2
10 -4 10 -5 0 -13 -5 -16 -10 -4 -6 -16 -8 -27 -4 -14 4 -18 2 -14 -5 4 -6 18
-11 32 -11 23 0 24 -1 10 -16 -15 -14 -17 -14 -32 0 -8 9 -20 13 -26 10 -6 -4
-8 -2 -4 4 3 6 2 13 -4 17 -5 3 -10 15 -10 26 0 16 -6 20 -27 17 -26 -3 -28 0
-31 35 -2 24 -8 37 -18 37 -8 0 -14 5 -14 10 0 6 7 10 15 10 17 0 20 16 4 25
-5 4 -9 14 -7 23 2 10 -3 23 -12 30 -8 7 -10 11 -5 10 6 -2 11 2 13 7 1 6 -2
10 -8 9 -5 -1 -21 -2 -35 -2 -16 -1 -29 -10 -35 -24 -7 -19 -9 -19 -9 -5 -1
10 -6 15 -11 12 -6 -4 -32 -8 -59 -10 -45 -4 -49 -3 -53 20 -3 15 -1 25 6 25
6 0 4 5 -4 10 -11 7 -4 9 23 8 24 -1 42 4 48 13 7 12 9 12 9 0 0 -11 3 -11 15
-1 8 6 18 9 23 6 4 -3 26 1 47 8 23 8 32 16 24 19 -11 4 -10 6 2 6 21 1 28 30
24 101 -2 30 -4 111 -5 180 0 95 -9 175 -37 335 -20 116 -39 212 -42 215 -4 3
-7 17 -7 31 -3 60 -27 170 -40 183 -11 12 -11 15 2 20 8 3 12 2 9 -4 -7 -12
18 -14 29 -2 4 4 18 7 29 7 15 0 22 6 21 18 -1 10 7 19 21 23 17 4 22 11 19
27 -2 12 -2 17 1 11 4 -7 24 -8 57 -4 28 4 65 3 82 -1 l31 -7 -35 -2 c-19 -1
-54 -1 -78 0 -27 1 -42 -3 -42 -11 0 -9 20 -10 78 -5 42 4 92 7 110 7 18 -1
51 4 75 10 23 6 62 13 87 16 25 3 46 9 48 14 2 4 10 5 18 2 8 -3 21 0 29 7 8
7 22 10 30 6 9 -3 34 1 57 8 22 8 47 12 56 9 10 -5 13 -2 8 6 -5 8 -18 10 -32
7 -13 -4 -32 -1 -43 6 -15 9 -25 9 -43 0 l-23 -12 25 5 c19 5 21 4 9 -4 -8 -6
-25 -7 -38 -4 -21 5 -21 6 5 19 31 16 74 18 74 4 0 -6 15 -8 40 -4 22 4 40 2
40 -3 0 -5 9 -9 19 -9 11 0 18 3 15 7 -2 4 3 10 12 13 10 4 13 2 8 -6 -5 -8
-1 -9 12 -4 10 4 41 10 69 13 27 3 56 10 63 15 7 6 16 8 20 4 7 -8 8 -13 11
-43 1 -16 3 -16 11 -3 8 13 11 11 16 -7 5 -17 14 -23 35 -23 43 0 46 20 9 53
-29 26 -34 27 -42 13 -5 -9 -14 -16 -21 -16 -9 0 -9 2 0 8 13 8 -11 44 -37 55
-11 5 -9 6 5 6 41 -2 53 1 51 16 -1 8 -5 18 -9 21 -10 10 -9 119 2 147 14 36
87 107 111 107 12 0 19 3 16 8 -2 4 19 8 47 9 85 2 107 5 101 14 -3 5 2 6 11
2 13 -5 14 -7 3 -14z m-870 -58 c-4 -34 -28 -58 -28 -27 0 9 5 16 12 16 9 0 9
3 0 12 -17 17 -25 4 -25 -45 0 -36 -3 -43 -20 -45 -12 0 -27 4 -34 10 -10 8
-13 7 -13 -4 0 -8 6 -15 13 -16 46 -4 58 -8 63 -25 3 -10 3 -21 0 -24 -3 -4
-6 1 -6 11 0 9 -4 14 -10 11 -5 -3 -10 -1 -10 4 0 6 -7 11 -15 11 -12 0 -13
-3 -3 -19 7 -11 15 -18 19 -15 11 6 18 -22 9 -36 -5 -8 -4 -22 1 -31 12 -24
11 -31 -3 -27 -7 3 -21 -6 -32 -19 -13 -17 -25 -23 -40 -19 -12 3 -27 1 -35
-3 -11 -7 -10 -11 5 -19 18 -10 17 -11 -3 -9 -23 1 -31 21 -13 32 6 4 3 16 -7
31 -17 27 -18 25 50 96 12 12 16 26 11 40 -3 11 -7 26 -8 33 -2 15 -36 50 -36
38 0 -5 6 -15 13 -23 6 -8 8 -12 3 -8 -5 4 -17 -3 -28 -15 l-19 -22 17 28 c23
38 1 34 -30 -5 -14 -18 -29 -29 -33 -24 -4 4 5 18 20 30 15 12 26 29 24 37 -2
8 -2 11 0 7 10 -18 20 -6 19 22 -1 27 -2 28 -13 13 -7 -9 -13 -13 -13 -7 1 38
56 39 124 3 14 -8 16 -8 10 3 -4 7 -4 10 1 6 13 -13 35 13 35 41 1 25 1 25 16
6 9 -12 13 -34 12 -54z m1146 -314 c-2 -7 6 -25 20 -40 23 -25 32 -27 98 -27
l74 0 -1 -27 0 -28 708 -3 707 -2 0 30 0 30 74 0 c71 0 76 -1 95 -29 21 -29
21 -39 21 -579 0 -535 -1 -550 -20 -575 -15 -19 -17 -27 -8 -31 9 -4 8 -5 -2
-5 -8 1 -279 1 -602 0 l-586 -1 -20 -32 c-14 -22 -17 -35 -10 -39 6 -4 7 -12
4 -18 -4 -6 -3 -11 2 -11 5 0 12 9 15 20 5 18 14 20 86 20 65 0 81 3 81 15 0
12 -17 15 -82 17 l-83 2 75 3 c82 4 124 -2 115 -17 -3 -6 6 -10 20 -10 15 0
24 4 20 10 -3 6 -2 10 4 10 5 0 11 -5 13 -11 2 -7 147 -13 443 -18 l440 -8
-480 -1 c-264 -1 -517 -2 -561 -2 -80 0 -82 -1 -88 -26 -8 -32 -32 -58 -46
-49 -16 10 -12 28 5 22 8 -4 17 -2 20 3 4 6 1 10 -4 10 -6 0 -11 8 -11 18 -1
11 -6 8 -17 -13 -10 -16 -16 -33 -15 -37 1 -5 -2 -8 -7 -8 -5 0 -7 -10 -4 -22
4 -18 3 -20 -6 -8 -8 12 -13 12 -23 2 -10 -10 -10 -15 2 -22 8 -5 11 -12 7
-17 -5 -4 -12 -1 -17 6 -7 12 -11 11 -27 -4 -10 -10 -19 -23 -19 -29 -1 -6 -2
-17 -3 -23 0 -7 -6 -13 -12 -13 -8 0 -8 5 1 15 20 24 2 17 -28 -10 -15 -14
-22 -25 -16 -25 5 0 15 5 22 12 8 8 12 9 12 1 0 -6 8 -14 18 -16 9 -3 -3 -4
-28 -2 -35 1 -53 -4 -80 -24 -47 -35 -51 -41 -45 -76 2 -17 0 -37 -6 -45 -8
-11 -9 -9 -4 9 6 18 4 22 -6 15 -11 -6 -11 -4 0 12 14 18 14 18 -3 2 -18 -15
-21 -15 -55 7 -20 13 -83 42 -140 65 -131 52 -163 68 -156 80 4 6 -1 7 -11 3
-12 -4 -15 -3 -10 5 4 7 3 12 -3 12 -7 0 -7 8 0 26 5 15 7 35 4 45 -4 11 -2
19 5 19 8 0 10 11 6 32 -5 26 -4 28 3 12 6 -13 6 -46 2 -78 -5 -39 -4 -55 3
-53 6 2 11 26 12 53 0 27 4 64 8 82 6 24 4 32 -4 30 -7 -2 -14 3 -16 10 -1 7
0 8 3 2 9 -19 23 1 23 33 0 18 8 43 17 57 10 14 17 43 17 73 0 30 3 42 7 31 6
-16 8 -15 18 11 6 17 15 38 21 47 6 11 6 19 0 23 -6 4 -5 11 3 19 6 8 15 12
18 10 16 -10 19 74 19 497 -1 354 2 454 12 467 9 11 4 10 -13 -3 -19 -15 -29
-32 -33 -64 -3 -24 -6 -234 -6 -467 0 -292 -3 -425 -11 -430 -6 -3 -8 -18 -5
-33 l6 -26 -15 25 c-17 29 -19 44 -6 35 6 -3 11 173 13 465 3 405 5 472 18
480 12 8 13 11 1 19 -10 6 -10 10 -1 16 7 4 16 2 20 -5 4 -7 10 -8 14 -2 3 5
-3 17 -14 27 -21 19 -27 55 -10 55 5 0 7 -6 4 -13z m3681 -206 c118 -16 130
-19 128 -37 -21 -167 -64 -478 -67 -481 -6 -6 -318 35 -325 42 -3 3 7 101 23
218 42 322 32 288 75 281 20 -3 95 -13 166 -23z m-1536 -301 c7 0 9 5 5 11 -4
8 3 9 22 5 16 -3 45 -6 64 -8 19 -2 40 -6 45 -10 6 -4 24 -18 40 -31 17 -13
37 -22 45 -20 13 4 13 3 0 -7 -12 -9 -12 -13 -2 -17 9 -3 11 -16 6 -40 -4 -23
-3 -34 3 -30 6 4 10 -12 10 -41 0 -87 7 -133 21 -127 6 2 12 0 12 -4 0 -5 -6
-12 -12 -14 -7 -3 -1 -6 15 -6 15 -1 27 -7 28 -13 6 -95 10 -120 23 -152 9
-22 11 -34 4 -30 -8 5 -9 1 -5 -10 4 -10 7 -24 7 -32 0 -9 3 -13 8 -11 4 3 5
-38 2 -90 -3 -52 -1 -104 3 -116 4 -11 5 -58 3 -104 -3 -50 -1 -93 6 -107 14
-31 47 -40 64 -18 12 15 13 15 14 1 0 -31 -45 -38 -254 -39 -183 -1 -206 1
-206 15 0 12 -6 15 -22 11 -13 -3 -17 -3 -9 0 11 5 11 8 0 16 -10 6 -7 7 9 3
21 -6 23 -4 18 14 -3 12 -9 31 -12 44 -9 29 -21 36 -56 32 -15 -2 -28 1 -28 6
0 6 5 7 10 4 14 -9 12 8 -2 25 -7 8 -1 4 15 -9 15 -14 27 -21 27 -17 0 10 -51
71 -59 71 -3 -1 -18 24 -34 55 -15 30 -25 46 -22 35 2 -11 1 -26 -4 -33 -5 -9
-8 1 -7 25 1 21 -6 60 -16 86 -10 26 -18 57 -18 67 0 11 -5 20 -10 20 -6 0 -8
-10 -5 -22 2 -13 -2 -36 -10 -53 -9 -16 -13 -22 -10 -12 3 11 8 31 11 45 5 22
3 24 -6 12 -10 -13 -11 -13 -7 1 3 9 1 21 -5 27 -6 6 -6 12 1 16 6 4 11 2 11
-4 0 -6 5 -8 11 -5 14 9 1 67 -18 81 -9 5 -13 19 -10 30 4 16 5 16 6 -4 1 -19
3 -21 20 -10 15 9 25 9 45 0 31 -14 30 -16 11 58 -8 32 -23 114 -33 184 -20
135 -18 147 28 183 28 23 105 56 135 58 17 2 33 3 37 4 4 1 5 9 2 19 -5 16 -5
16 9 0 8 -10 20 -18 26 -18z m792 -106 c33 -15 15 -14 -26 1 -19 7 -18 6 1 -8
16 -12 49 -17 121 -19 l100 -3 1 -45 c1 -25 -2 -51 -7 -59 -9 -14 -54 -18
-111 -8 -19 3 -59 9 -89 12 -48 5 -53 4 -41 -9 17 -21 1 -20 -22 1 -21 19 -25
101 -5 122 10 11 9 13 -3 9 -8 -2 -20 -20 -27 -39 l-12 -34 1 37 c2 39 17 53
49 43 9 -3 20 -1 24 5 8 13 6 13 46 -6z m109 -186 c0 -4 -5 -8 -11 -8 -20 0
-38 -26 -28 -41 7 -11 9 -10 9 4 0 10 4 16 9 13 5 -4 11 0 14 6 3 10 7 10 19
1 8 -7 18 -10 22 -6 4 4 4 0 1 -8 -6 -16 17 -20 40 -8 20 11 58 4 63 -11 4
-12 2 -13 -9 -4 -19 15 -46 14 -46 -2 0 -9 5 -10 19 -3 16 9 22 6 20 -12 -1
-3 5 -6 13 -6 8 0 12 4 9 9 -3 4 2 8 10 8 9 0 16 -7 16 -15 0 -8 5 -15 11 -15
5 0 7 5 4 10 -3 6 1 10 10 10 8 0 18 -7 21 -15 6 -14 8 -14 19 1 11 16 12 16
18 0 7 -18 27 -22 27 -5 0 5 -4 7 -10 4 -5 -3 -10 -2 -10 4 0 5 9 9 20 8 11
-1 20 -6 20 -12 0 -6 6 -17 13 -24 8 -8 12 -48 12 -125 0 -85 -3 -109 -11 -98
-9 12 -14 6 -23 -36 -7 -28 -10 -56 -6 -62 4 -6 1 -17 -5 -25 -10 -12 -10 -15
0 -15 9 0 7 -6 -5 -20 -10 -11 -15 -26 -11 -36 4 -10 2 -20 -3 -24 -6 -3 -11
-21 -12 -41 -2 -25 -7 -35 -20 -35 -10 0 -16 3 -13 7 5 8 -40 18 -283 63 -95
18 -174 34 -177 37 -3 2 15 108 39 234 24 131 39 234 34 240 -5 7 0 16 13 24
11 7 17 8 14 3 -3 -6 2 -9 11 -7 10 2 20 4 22 4 3 1 -4 8 -15 16 -17 13 -14
14 38 11 32 -2 55 0 53 5 -3 4 4 7 15 6 11 -1 20 -5 20 -9z m821 -549 c11 -5
16 -15 13 -21 -4 -7 -3 -8 5 -4 6 4 9 12 6 17 -4 5 -2 9 4 9 19 0 22 -20 5
-52 -25 -51 -45 -69 -68 -63 -12 3 -15 2 -8 -1 16 -8 16 -27 -1 -21 -8 3 -20
1 -28 -5 -11 -7 -9 -8 6 -3 16 5 18 4 7 -7 -7 -7 -36 -12 -65 -12 -60 0 -117
28 -135 68 -10 23 -8 25 31 42 23 10 44 18 47 19 3 0 21 11 40 23 38 24 107
29 141 11z m211 -61 c15 -15 20 -17 15 -5 -5 13 1 13 36 -6 55 -28 78 -50 121
-120 l37 -58 -35 -14 c-43 -18 -76 -19 -113 -3 -39 16 -93 68 -93 89 0 10 -4
21 -10 24 -5 3 -10 28 -10 54 0 67 14 77 52 39z"/>
<path d="M2238 2753 c265 -2 699 -2 965 0 265 1 48 2 -483 2 -531 0 -748 -1
-482 -2z"/>
<path d="M1374 2292 c-70 -33 -107 -117 -84 -189 43 -132 220 -155 287 -37 79
137 -60 292 -203 226z"/>
<path d="M2052 1333 l3 -38 98 -3 97 -3 0 41 0 40 -101 0 -100 0 3 -37z"/>
<path d="M3182 1333 l3 -38 100 0 100 0 3 38 3 37 -106 0 -106 0 3 -37z"/>
<path d="M2479 1260 c-1 -5 -1 -17 -1 -25 0 -48 -11 -46 210 -43 l207 3 3 38
3 37 -210 0 c-133 0 -211 -4 -212 -10z"/>
</g>
</svg>
